<!-- Generated by IcoMoon.io -->
<svg version="1.1" xmlns="http://www.w3.org/2000/svg" width="19" height="32" viewBox="0 0 19 32">
<title>facebook</title>
<path d="M17.099 15.64c0.567-1.402-0.465-2.933-1.978-2.933h-0.392c-1.178 0-2.133-0.955-2.133-2.133v-2.368c0-1.242 1.019-1.125 2.276-1.125h0.142c1.178 0 2.133-0.955 2.133-2.133v-1.36c0-1.178-0.955-2.133-2.133-2.133h-2.418c-1.811 0-3.547 0.711-4.827 1.978s-2 2.984-2 4.774v2.368c0 1.178-0.955 2.133-2.133 2.133h-0.284c-1.178 0-2.133 0.955-2.133 2.133v1.36c0 1.178 0.955 2.133 2.133 2.133h0.284c1.178 0 2.133 0.955 2.133 2.133v8.111c0 1.178 0.955 2.133 2.133 2.133h2.56c1.178 0 2.133-0.955 2.133-2.133v-8.206c0-1.126 0.913-2.039 2.039-2.039 0.831 0 1.579-0.504 1.89-1.274l0.574-1.419z"></path>
</svg>
