<!-- Generated by IcoMoon.io -->
<svg version="1.1" xmlns="http://www.w3.org/2000/svg" width="42" height="32" viewBox="0 0 42 32">
<title>linkedin</title>
<path d="M12.484 11.356h-6.409v18.768h6.409v-18.768z"></path>
<path d="M11.406 2.597c-0.611-0.37-1.329-0.567-2.063-0.567-0.49 0-0.975 0.088-1.427 0.259s-0.863 0.421-1.209 0.736c-0.345 0.315-0.619 0.69-0.804 1.101s-0.28 0.852-0.277 1.297c0.004 0.666 0.226 1.317 0.637 1.869s0.993 0.982 1.673 1.234c0.68 0.252 1.426 0.316 2.146 0.184s1.38-0.455 1.898-0.928c0.518-0.473 0.87-1.074 1.011-1.728s0.067-1.331-0.215-1.947c-0.282-0.615-0.758-1.141-1.369-1.511z"></path>
<path d="M22.771 11.355h-6.174l-0.021 18.807h6.409v-9.287c0-2.443 0.513-4.808 3.845-4.808s3.333 2.811 3.333 4.983v9.074h6.409v-10.295c0-5.060-1.303-8.938-7.712-8.938-1.221-0.043-2.433 0.215-3.505 0.748s-1.965 1.32-2.583 2.277v-2.559z"></path>
</svg>
