<!-- Generated by IcoMoon.io -->
<svg version="1.1" xmlns="http://www.w3.org/2000/svg" width="42" height="32" viewBox="0 0 42 32">
<title>twitter</title>
<path d="M39.979 4.255c-1.064 1.582-2.368 2.93-3.914 4.045 0.015 0.299 0.023 0.637 0.023 1.014 0 2.095-0.305 4.192-0.916 6.291s-1.544 4.109-2.799 6.029c-1.255 1.92-2.75 3.621-4.485 5.102s-3.821 2.663-6.257 3.544c-2.436 0.881-5.047 1.322-7.833 1.322-4.347 0-8.351-1.174-12.011-3.521 0.65 0.072 1.272 0.109 1.869 0.109 3.632 0 6.876-1.119 9.732-3.356-1.693-0.031-3.21-0.552-4.55-1.564s-2.262-2.304-2.766-3.878c0.498 0.095 0.99 0.142 1.476 0.142 0.699 0 1.386-0.091 2.063-0.273-1.807-0.362-3.306-1.262-4.498-2.7s-1.787-3.098-1.787-4.98v-0.097c1.109 0.614 2.292 0.941 3.55 0.98-1.071-0.714-1.919-1.644-2.546-2.792s-0.941-2.39-0.941-3.726c0-1.409 0.353-2.722 1.059-3.937 1.965 2.412 4.347 4.339 7.144 5.782s5.799 2.245 9.003 2.405c-0.137-0.57-0.205-1.164-0.205-1.783 0-2.162 0.765-4.008 2.296-5.539s3.377-2.295 5.539-2.295c2.264 0 4.171 0.824 5.72 2.473 1.771-0.351 3.429-0.985 4.974-1.903-0.595 1.874-1.743 3.319-3.441 4.336 1.562-0.186 3.062-0.596 4.501-1.231v0z"></path>
</svg>
